<svg version="1.1" viewBox="0.0 0.0 377.9527559055118 377.9527559055118" fill="none" stroke="none" stroke-linecap="square" stroke-miterlimit="10" xmlns:xlink="http://www.w3.org/1999/xlink" xmlns="http://www.w3.org/2000/svg"><clipPath id="p.0"><path d="m0 0l377.95276 0l0 377.95276l-377.95276 0l0 -377.95276z" clip-rule="nonzero"/></clipPath><g clip-path="url(#p.0)"><path fill="#000000" fill-opacity="0.0" d="m0 0l377.95276 0l0 377.95276l-377.95276 0z" fill-rule="evenodd"/><path fill="#000000" fill-opacity="0.0" d="m0 0l377.95276 0l0 377.95276l-377.95276 0z" fill-rule="evenodd"/><path fill="#000000" d="m70.617004 246.57637l-14.0625 0l0 -89.609375q-5.078125 4.84375 -13.328125 9.6875q-8.234375 4.84375 -14.796875 7.265625l0 -13.59375q11.796875 -5.546875 20.625 -13.4375q8.828125 -7.890625 12.5 -15.3125l9.0625 0l0 115.0zm36.015625 -56.484375q0 -20.3125 4.171875 -32.6875q4.1875 -12.390625 12.421875 -19.109375q8.25 -6.71875 20.75 -6.71875q9.21875 0 16.171875 3.71875q6.953125 3.703125 11.484375 10.703125q4.53125 6.984375 7.109375 17.03125q2.578125 10.03125 2.578125 27.0625q0 20.15625 -4.140625 32.546875q-4.140625 12.375 -12.390625 19.140625q-8.234375 6.75 -20.8125 6.75q-16.5625 0 -26.015625 -11.875q-11.328125 -14.296875 -11.328125 -46.5625zm14.453125 0q0 28.203125 6.59375 37.546875q6.609375 9.328125 16.296875 9.328125q9.6875 0 16.28125 -9.375q6.609375 -9.375 6.609375 -37.5q0 -28.28125 -6.609375 -37.578125q-6.59375 -9.296875 -16.4375 -9.296875q-9.6875 0 -15.46875 8.203125q-7.265625 10.46875 -7.265625 38.671875zm74.53125 0q0 -20.3125 4.171875 -32.6875q4.1875 -12.390625 12.421875 -19.109375q8.25 -6.71875 20.75 -6.71875q9.21875 0 16.171875 3.71875q6.953125 3.703125 11.484375 10.703125q4.53125 6.984375 7.109375 17.03125q2.578125 10.03125 2.578125 27.0625q0 20.15625 -4.140625 32.546875q-4.140625 12.375 -12.390625 19.140625q-8.234375 6.75 -20.8125 6.75q-16.5625 0 -26.015625 -11.875q-11.328125 -14.296875 -11.328125 -46.5625zm14.453125 0q0 28.203125 6.59375 37.546875q6.609375 9.328125 16.296875 9.328125q9.6875 0 16.28125 -9.375q6.609375 -9.375 6.609375 -37.5q0 -28.28125 -6.609375 -37.578125q-6.59375 -9.296875 -16.4375 -9.296875q-9.6875 0 -15.46875 8.203125q-7.265625 10.46875 -7.265625 38.671875zm74.53125 0q0 -20.3125 4.171875 -32.6875q4.1875 -12.390625 12.421875 -19.109375q8.25 -6.71875 20.75 -6.71875q9.21875 0 16.171875 3.71875q6.953125 3.703125 11.484375 10.703125q4.53125 6.984375 7.109375 17.03125q2.578125 10.03125 2.578125 27.0625q0 20.15625 -4.140625 32.546875q-4.140625 12.375 -12.390625 19.140625q-8.234375 6.75 -20.8125 6.75q-16.5625 0 -26.015625 -11.875q-11.328125 -14.296875 -11.328125 -46.5625zm14.453125 0q0 28.203125 6.59375 37.546875q6.609375 9.328125 16.296875 9.328125q9.6875 0 16.28125 -9.375q6.609375 -9.375 6.609375 -37.5q0 -28.28125 -6.609375 -37.578125q-6.59375 -9.296875 -16.4375 -9.296875q-9.6875 0 -15.46875 8.203125q-7.265625 10.46875 -7.265625 38.671875z" fill-rule="nonzero"/></g></svg>