<svg version="1.1" viewBox="0.0 0.0 377.9527559055118 377.9527559055118" fill="none" stroke="none" stroke-linecap="square" stroke-miterlimit="10" xmlns:xlink="http://www.w3.org/1999/xlink" xmlns="http://www.w3.org/2000/svg"><clipPath id="p.0"><path d="m0 0l377.95276 0l0 377.95276l-377.95276 0l0 -377.95276z" clip-rule="nonzero"/></clipPath><g clip-path="url(#p.0)"><path fill="#000000" fill-opacity="0.0" d="m0 0l377.95276 0l0 377.95276l-377.95276 0z" fill-rule="evenodd"/><path fill="#000000" fill-opacity="0.0" d="m0 0l377.95276 0l0 377.95276l-377.95276 0z" fill-rule="evenodd"/><path fill="#000000" d="m62.218567 216.342l14.0625 -1.875q2.421875 11.953125 8.234375 17.234375q5.828125 5.265625 14.1875 5.265625q9.921875 0 16.75 -6.875q6.84375 -6.875 6.84375 -17.03125q0 -9.6875 -6.328125 -15.96875q-6.328125 -6.296875 -16.09375 -6.296875q-3.984375 0 -9.921875 1.5625l1.5625 -12.34375q1.40625 0.15625 2.265625 0.15625q8.984375 0 16.171875 -4.6875q7.1875 -4.6875 7.1875 -14.453125q0 -7.734375 -5.234375 -12.8125q-5.234375 -5.078125 -13.515625 -5.078125q-8.203125 0 -13.671875 5.15625q-5.46875 5.15625 -7.03125 15.46875l-14.0625 -2.5q2.578125 -14.140625 11.71875 -21.90625q9.140625 -7.78125 22.734375 -7.78125q9.375 0 17.265625 4.03125q7.890625 4.015625 12.0625 10.96875q4.1875 6.953125 4.1875 14.765625q0 7.421875 -3.984375 13.515625q-3.984375 6.09375 -11.796875 9.6875q10.15625 2.34375 15.78125 9.734375q5.625 7.375 5.625 18.46875q0 15.0 -10.9375 25.4375q-10.9375 10.421875 -27.65625 10.421875q-15.078125 0 -25.046875 -8.984375q-9.953125 -8.984375 -11.359375 -23.28125zm88.90625 -26.25q0 -20.3125 4.171875 -32.6875q4.1875 -12.390625 12.421875 -19.109375q8.25 -6.71875 20.75 -6.71875q9.21875 0 16.171875 3.71875q6.953125 3.703125 11.484375 10.703125q4.53125 6.984375 7.109375 17.03125q2.578125 10.03125 2.578125 27.0625q0 20.15625 -4.140625 32.546875q-4.140625 12.375 -12.390625 19.140625q-8.234375 6.75 -20.8125 6.75q-16.5625 0 -26.015625 -11.875q-11.328125 -14.296875 -11.328125 -46.5625zm14.453125 0q0 28.203125 6.59375 37.546875q6.609375 9.328125 16.296875 9.328125q9.6875 0 16.28125 -9.375q6.609375 -9.375 6.609375 -37.5q0 -28.28125 -6.609375 -37.578125q-6.59375 -9.296875 -16.4375 -9.296875q-9.6875 0 -15.46875 8.203125q-7.265625 10.46875 -7.265625 38.671875zm74.53125 0q0 -20.3125 4.171875 -32.6875q4.1875 -12.390625 12.421875 -19.109375q8.25 -6.71875 20.75 -6.71875q9.21875 0 16.171875 3.71875q6.953125 3.703125 11.484375 10.703125q4.53125 6.984375 7.109375 17.03125q2.578125 10.03125 2.578125 27.0625q0 20.15625 -4.140625 32.546875q-4.140625 12.375 -12.390625 19.140625q-8.234375 6.75 -20.8125 6.75q-16.5625 0 -26.015625 -11.875q-11.328125 -14.296875 -11.328125 -46.5625zm14.453125 0q0 28.203125 6.59375 37.546875q6.609375 9.328125 16.296875 9.328125q9.6875 0 16.28125 -9.375q6.609375 -9.375 6.609375 -37.5q0 -28.28125 -6.609375 -37.578125q-6.59375 -9.296875 -16.4375 -9.296875q-9.6875 0 -15.46875 8.203125q-7.265625 10.46875 -7.265625 38.671875z" fill-rule="nonzero"/></g></svg>